<svg xmlns="http://www.w3.org/2000/svg" xmlns:xlink="http://www.w3.org/1999/xlink" viewBox="0 0 114.91 114.91"><defs><style>.cls-1{fill:url(#linear-gradient);}.cls-2{fill:#fff;}</style><linearGradient id="linear-gradient" x1="6.33" y1="6.33" x2="99.32" y2="99.32" gradientUnits="userSpaceOnUse"><stop offset="0" stop-color="#693e91"/><stop offset="1" stop-color="#12aeab"/></linearGradient></defs><g id="Layer_2" data-name="Layer 2"><g id="Layer_1-2" data-name="Layer 1"><rect class="cls-1" width="114.91" height="114.91" rx="57.46"/><path class="cls-2" d="M54.18,89.67l-1.64-1.89a8.62,8.62,0,1,1,13-11.33l1.65,1.89,7.41-6.45L73,70A18.45,18.45,0,1,0,45.13,94.23l1.64,1.89Z"/><circle class="cls-2" cx="66.35" cy="90.51" r="8.62"/><path class="cls-2" d="M27.56,51.87l1.89-1.65a8.62,8.62,0,0,1,11.32,13l-1.89,1.65,6.45,7.4,1.89-1.64A18.45,18.45,0,0,0,23,42.81l-1.89,1.65Z"/><circle class="cls-2" cx="26.72" cy="64.03" r="8.62"/><path class="cls-2" d="M65.36,25.25,67,27.14A8.62,8.62,0,0,1,54,38.46l-1.64-1.89L44.94,43l1.65,1.89A18.44,18.44,0,0,0,74.41,20.69L72.77,18.8Z"/><circle class="cls-2" cx="53.19" cy="24.4" r="8.62"/><path class="cls-2" d="M92,63l-1.89,1.65a8.62,8.62,0,1,1-11.32-13L80.66,50l-6.45-7.41-1.89,1.64A18.45,18.45,0,0,0,96.54,72.1l1.89-1.65Z"/><circle class="cls-2" cx="92.82" cy="50.88" r="8.62"/><path class="cls-2" d="M16.38,47.22a2.85,2.85,0,0,1-2.91-3,2.91,2.91,0,1,1,2.91,3Zm0-5.4a2.45,2.45,0,1,0,2.27,2.44A2.3,2.3,0,0,0,16.38,41.82ZM15.8,46h-.54V42.68H16.5c.79,0,1.2.28,1.2.94a.85.85,0,0,1-.86.9L17.76,46h-.61l-.85-1.41h-.5Zm.6-1.86c.4,0,.76,0,.76-.52s-.39-.44-.71-.44H15.8v1Z"/></g></g></svg>